<svg width="24" height="24" viewBox="0 0 24 24" fill="none" xmlns="http://www.w3.org/2000/svg">
<path fill-rule="evenodd" clip-rule="evenodd" d="M11.997 0H12.003C18.6195 0 24 5.3835 24 12C24 18.6165 18.6195 24 12.003 24C9.5625 24 7.299 23.274 5.4015 22.017L0.789 23.4915L2.2845 19.0335C0.846 17.058 0 14.625 0 12C0 5.382 5.3805 0 11.997 0ZM16.6303 18.639C17.5468 18.441 18.6958 17.763 18.9853 16.9455C19.2748 16.1265 19.2748 15.429 19.1908 15.2805C19.123 15.1627 18.9626 15.0855 18.7232 14.9702C18.6608 14.9402 18.5931 14.9076 18.5203 14.871C18.1678 14.6955 16.4533 13.848 16.1293 13.7355C15.8113 13.6155 15.5083 13.6575 15.2683 13.9965C15.2227 14.0605 15.1771 14.1245 15.1318 14.1882C14.8423 14.5954 14.563 14.9882 14.3308 15.2385C14.1193 15.4635 13.7743 15.492 13.4848 15.372C13.4533 15.3589 13.4171 15.3443 13.3766 15.3279C12.9182 15.1428 11.9015 14.7322 10.6708 13.6365C9.63281 12.7125 8.92781 11.562 8.72381 11.217C8.52352 10.8709 8.69629 10.668 8.85596 10.4804C8.85892 10.477 8.86187 10.4735 8.86481 10.47C8.96776 10.3427 9.06766 10.2366 9.16806 10.13C9.24028 10.0533 9.31276 9.97638 9.38681 9.89103C9.39781 9.87836 9.40851 9.86606 9.41893 9.85408C9.57617 9.67328 9.6698 9.56562 9.77531 9.34054C9.89531 9.10804 9.80981 8.86803 9.72431 8.69103C9.66548 8.56707 9.30205 7.68527 8.99008 6.92835C8.85661 6.60451 8.73256 6.30353 8.64581 6.09453C8.41331 5.53803 8.23631 5.51703 7.88381 5.50203C7.87301 5.50149 7.8621 5.50094 7.85108 5.50038C7.73966 5.49474 7.61695 5.48853 7.48181 5.48853C7.02281 5.48853 6.54431 5.62353 6.25481 5.91903C6.2447 5.92937 6.23415 5.94009 6.22321 5.95122C5.85284 6.32789 5.02781 7.16695 5.02781 8.83953C5.02781 10.5153 6.21687 12.1372 6.43688 12.4373C6.44294 12.4455 6.44827 12.4528 6.45281 12.459C6.46605 12.4764 6.491 12.5126 6.52732 12.5651C6.97654 13.2157 9.16456 16.3843 12.4273 17.736C15.1843 18.879 16.0033 18.7725 16.6303 18.639Z" fill="white"/>
</svg>
