<svg width="36" height="36" viewBox="0 0 36 36" fill="none" xmlns="http://www.w3.org/2000/svg">
<circle cx="18" cy="18" r="18" fill="#0077B5"/>
<path d="M12.4725 14.25H8V28H12.4725V14.25Z" fill="white"/>
<path d="M24.655 14.4113C24.6075 14.3963 24.5625 14.38 24.5125 14.3662C24.4525 14.3525 24.3925 14.3413 24.3312 14.3313C24.0937 14.2838 23.8338 14.25 23.5288 14.25C20.9213 14.25 19.2675 16.1463 18.7225 16.8788V14.25H14.25V28H18.7225V20.5C18.7225 20.5 22.1025 15.7925 23.5288 19.25C23.5288 22.3363 23.5288 28 23.5288 28H28V18.7212C28 16.6437 26.5763 14.9125 24.655 14.4113Z" fill="white"/>
<path d="M10.1875 12.375C11.3956 12.375 12.375 11.3956 12.375 10.1875C12.375 8.97938 11.3956 8 10.1875 8C8.97938 8 8 8.97938 8 10.1875C8 11.3956 8.97938 12.375 10.1875 12.375Z" fill="white"/>
</svg>
