<?xml version="1.0" encoding="UTF-8"?> <svg xmlns="http://www.w3.org/2000/svg" width="1663" height="393" viewBox="0 0 1663 393" fill="none"><path fill-rule="evenodd" clip-rule="evenodd" d="M602.04 56.6199C589.08 42.6999 573.24 35.7399 554.52 35.7399C536.76 35.7399 521.64 42.0399 509.16 54.6399C496.68 67.1199 490.44 82.2399 490.44 99.9999C490.44 117.76 496.68 132.94 509.16 145.54C521.64 158.02 536.76 164.26 554.52 164.26C573.24 164.26 589.08 157.3 602.04 143.38L585.84 128.44C577.56 136.72 567.12 140.86 554.52 140.86C543.36 140.86 534 137.08 526.44 129.52C519 121.84 515.28 112 515.28 99.9999C515.28 88.1199 519 78.3399 526.44 70.6599C534 62.9799 543.36 59.1399 554.52 59.1399C566.88 59.1399 577.32 63.2799 585.84 71.5599L602.04 56.6199ZM671.96 36.9999H623.36V163H672.86C703.94 163 719.48 150.94 719.48 126.82C719.48 119.38 717.56 113.02 713.72 107.74C709.88 102.34 704.66 98.8599 698.06 97.2999C709.1 92.86 714.62 83.9199 714.62 70.48C714.62 66.7599 714.08 63.2199 713 59.8599C711.92 56.4999 709.94 52.9599 707.06 49.2399C704.3 45.5199 699.92 42.5799 693.92 40.4199C687.92 38.1399 680.6 36.9999 671.96 36.9999ZM648.2 87.3999V60.3999H674.66C685.7 60.3999 691.22 64.8999 691.22 73.8999C691.22 77.4999 689.96 80.6799 687.44 83.4399C684.92 86.0799 680.66 87.3999 674.66 87.3999H648.2ZM648.2 139.42V108.82H678.08C684.2 108.82 688.7 110.32 691.58 113.32C694.58 116.2 696.08 119.8 696.08 124.12C696.08 128.68 694.64 132.4 691.76 135.28C689 138.04 684.44 139.42 678.08 139.42H648.2ZM796.409 35.7399C778.649 35.7399 763.529 42.0399 751.049 54.6399C738.569 67.1199 732.329 82.2399 732.329 99.9999C732.329 117.76 738.569 132.94 751.049 145.54C763.529 158.02 778.649 164.26 796.409 164.26C814.169 164.26 829.289 158.02 841.769 145.54C854.369 132.94 860.669 117.76 860.669 99.9999C860.669 82.2399 854.369 67.1199 841.769 54.6399C829.289 42.0399 814.169 35.7399 796.409 35.7399ZM796.409 59.1399C807.569 59.1399 816.929 62.9799 824.489 70.6599C832.049 78.3399 835.829 88.1199 835.829 99.9999C835.829 112 832.049 121.84 824.489 129.52C817.049 137.08 807.689 140.86 796.409 140.86C785.249 140.86 775.889 137.08 768.329 129.52C760.889 121.84 757.169 112 757.169 99.9999C757.169 88.1199 760.889 78.3399 768.329 70.6599C775.889 62.9799 785.249 59.1399 796.409 59.1399ZM937.187 83.4399H907.667V60.3999H967.067V36.9999H882.827V163H937.187C951.587 163 962.387 159.46 969.587 152.38C976.787 145.3 980.387 135.58 980.387 123.22C980.387 110.98 976.727 101.32 969.407 94.2399C962.087 87.0399 951.347 83.4399 937.187 83.4399ZM937.547 139.6H907.667V106.84H937.547C950.387 106.84 956.807 112.3 956.807 123.22C956.807 134.14 950.387 139.6 937.547 139.6ZM1057.11 35.7399C1039.35 35.7399 1024.23 42.0399 1011.75 54.6399C999.267 67.1199 993.027 82.2399 993.027 99.9999C993.027 117.76 999.267 132.94 1011.75 145.54C1024.23 158.02 1039.35 164.26 1057.11 164.26C1074.87 164.26 1089.99 158.02 1102.47 145.54C1115.07 132.94 1121.37 117.76 1121.37 99.9999C1121.37 82.2399 1115.07 67.1199 1102.47 54.6399C1089.99 42.0399 1074.87 35.7399 1057.11 35.7399ZM1057.11 59.1399C1068.27 59.1399 1077.63 62.9799 1085.19 70.6599C1092.75 78.3399 1096.53 88.1199 1096.53 99.9999C1096.53 112 1092.75 121.84 1085.19 129.52C1077.75 137.08 1068.39 140.86 1057.11 140.86C1045.95 140.86 1036.59 137.08 1029.03 129.52C1021.59 121.84 1017.87 112 1017.87 99.9999C1017.87 88.1199 1021.59 78.3399 1029.03 70.6599C1036.59 62.9799 1045.95 59.1399 1057.11 59.1399ZM1233.11 186.22H1257.95V139.6H1241.39L1199.81 36.9999H1185.05L1142.93 139.6H1126.19V186.22H1151.03V163H1233.11V186.22ZM1169.57 139.6L1192.07 82.5399L1214.75 139.6H1169.57ZM1348.24 163H1373.08V36.9999H1348.24V87.9399H1299.46V36.9999H1274.62V163H1299.46V111.34H1348.24V163ZM1453.95 83.4399H1425.69V36.9999H1400.85V163H1453.95C1468.35 163 1479.09 159.46 1486.17 152.38C1493.37 145.3 1496.97 135.58 1496.97 123.22C1496.97 110.98 1493.31 101.32 1485.99 94.2399C1478.79 87.0399 1468.11 83.4399 1453.95 83.4399ZM1509.75 163H1534.59V36.9999H1509.75V163ZM1454.31 139.6H1425.69V106.84H1454.31C1467.15 106.84 1473.57 112.3 1473.57 123.22C1473.57 134.14 1467.15 139.6 1454.31 139.6ZM1613.3 27.9999C1621.22 27.9999 1627.88 25.4199 1633.28 20.2599C1638.8 15.0999 1641.56 8.61995 1641.56 0.819946H1625.9C1625.9 4.05995 1624.64 6.81995 1622.12 9.09995C1619.72 11.2599 1616.78 12.3399 1613.3 12.3399C1609.82 12.3399 1606.88 11.2599 1604.48 9.09995C1602.08 6.81995 1600.88 4.05995 1600.88 0.819946H1585.04C1585.04 8.61995 1587.74 15.0999 1593.14 20.2599C1598.66 25.4199 1605.38 27.9999 1613.3 27.9999ZM1637.96 163H1662.8V36.9999H1648.04L1588.46 116.38V36.9999H1563.62V163H1578.2L1637.96 83.6199V163ZM569.46 379H594.3V253H497.1V379H521.94V276.4H569.46V379ZM639.564 379L670.884 298.54L702.024 379H729.564L678.444 253H663.864L612.024 379H639.564ZM812.951 379H837.791V253H794.951C777.911 253 764.531 257.5 754.811 266.5C745.211 275.38 740.411 286.72 740.411 300.52C740.411 309.88 742.751 317.98 747.431 324.82C752.231 331.66 758.951 336.76 767.591 340.12C762.551 343.24 756.251 350.62 748.691 362.26L737.891 379H765.791L773.891 366.4C778.811 358.72 782.711 353.8 785.591 351.64C788.591 349.48 793.091 348.34 799.091 348.22H812.951V379ZM792.611 276.4H812.951V324.82H792.611C783.971 324.82 777.011 322.78 771.731 318.7C766.451 314.62 763.811 308.56 763.811 300.52C763.811 292.84 766.451 286.9 771.731 282.7C777.131 278.5 784.091 276.4 792.611 276.4ZM983.973 338.5L1009.89 379H1037.97L1007.19 330.94C1001.43 322.18 996.333 316.72 991.893 314.56C995.973 312.28 1000.77 307.24 1006.29 299.44L1035.99 253H1007.91L983.073 291.88C980.193 296.32 977.613 299.32 975.333 300.88C973.173 302.44 970.053 303.22 965.973 303.22H960.033V253H935.193V303.22H929.073C924.993 303.22 921.873 302.44 919.713 300.88C917.553 299.32 914.973 296.32 911.973 291.88L887.313 253H859.233L888.753 299.44C894.633 307.48 899.493 312.52 903.333 314.56C898.893 316.6 893.793 322.06 888.033 330.94L857.253 379H885.333L911.253 338.5C914.133 334.06 916.653 331.06 918.813 329.5C920.973 327.94 924.153 327.16 928.353 327.16H935.193V379H960.033V327.16H966.873C970.953 327.16 974.073 327.94 976.233 329.5C978.393 331.06 980.973 334.06 983.973 338.5ZM0.268036 73.0001V121H80.268V73.0001C80.268 50.9087 62.3594 33.0001 40.268 33.0001C18.1767 33.0001 0.268036 50.9087 0.268036 73.0001ZM362.268 212C362.268 231.915 359.052 251.079 353.11 269C329.228 341.036 261.317 393 181.268 393C101.219 393 33.3076 341.036 9.42575 269C3.48428 251.079 0.268036 231.915 0.268036 212V133H130.268C151.554 133 168.957 149.627 170.197 170.601C170.244 171.395 170.268 172.195 170.268 173C170.268 181.854 167.392 190.035 162.522 196.662C155.242 206.57 143.506 213 130.268 213H54.0449C62.5081 216.277 70.5975 220.304 78.2312 225C93.48 234.381 106.911 246.431 117.872 260.5C119.348 262.394 120.779 264.324 122.163 266.29C123.348 267.971 125.262 269 127.319 269C132.124 269 135.048 263.773 132.294 259.835C131.629 258.884 130.953 257.941 130.268 257.005C121.447 244.955 110.992 234.178 99.2303 225H130.268C157.646 225 180.083 203.842 182.118 176.985C190.787 193.632 208.2 205 228.268 205C249.015 205 266.924 192.85 275.268 175.277C283.612 192.85 301.521 205 322.268 205C338.352 205 352.73 197.698 362.268 186.229V212ZM94.268 121H130.268C148.794 121 165.058 130.688 174.268 145.275V73.0001C174.268 50.9087 156.359 33.0001 134.268 33.0001C112.177 33.0001 94.268 50.9087 94.268 73.0001V121ZM188.268 153C188.268 175.092 206.177 193 228.268 193C250.359 193 268.268 175.092 268.268 153V73.0001C268.268 50.9087 250.359 33.0001 228.268 33.0001C206.177 33.0001 188.268 50.9087 188.268 73.0001V153ZM322.268 193C300.177 193 282.268 175.092 282.268 153V73.0001C282.268 50.9087 300.177 33.0001 322.268 33.0001C344.359 33.0001 362.268 50.9087 362.268 73.0001V153.05C362.241 175.119 344.343 193 322.268 193Z" fill="#F9423A"></path></svg> 